# xmcd
#
# Track frame offsets:
#	150
#	21090
#	38260
#	59742
#	80280
#	98150
#	116715
#	134695
#	153465
#	179840
#
# Disc length: 2615 seconds
#
# Revision: 0
# Processed by: cddbd v1.5.1PL0 Copyright (c) Steve Scherf et al.
# Submitted via: dBpowerAMP V4.0
#
DISCID=850a350a
DTITLE=Блестящие - Просто мечты
DYEAR=1998
DGENRE=Pop
TTITLE0=Облака
TTITLE1=Ча-ча-ча
TTITLE2=Неоткрытое письмо
TTITLE3=Не грусти
TTITLE4=Твои глаза опять молчат
TTITLE5=Где же ты, где
TTITLE6=Пам-пам-пам
TTITLE7=Я собираю сны
TTITLE8=Блестящие and DJ Мама
TTITLE9=Где же ты, где (DJ Мама RMX)
EXTD=
EXTT0=
EXTT1=
EXTT2=
EXTT3=
EXTT4=
EXTT5=
EXTT6=
EXTT7=
EXTT8=
EXTT9=
PLAYORDER=
